<svg xmlns="http://www.w3.org/2000/svg" xmlns:xlink="http://www.w3.org/1999/xlink" viewBox="0 0 24 30" version="1.1" x="0px" y="0px"><title>19 - Pong (Outline)</title><desc>Created with Sketch.</desc><g stroke="none" stroke-width="1" fill="none" fill-rule="evenodd"><g fill="#000000"><path d="M11,0.9998 L11,22.9998 C11,23.5520847 11.4477153,23.9998 12,23.9998 C12.5522847,23.9998 13,23.5520847 13,22.9998 L13,0.9998 C13,0.44751525 12.5522847,-0.0002 12,-0.0002 C11.4477153,-0.0002 11,0.44751525 11,0.9998 Z"/><path d="M23,22.9998 L22,22.9998 C21.448,22.9998 21,22.5518 21,21.9998 L21,13.9998 C21,13.4478 21.448,12.9998 22,12.9998 L23,12.9998 C23.553,12.9998 24,13.4478 24,13.9998 L24,21.9998 C24,22.5518 23.553,22.9998 23,22.9998"/><path d="M2,11.9998 L1,11.9998 C0.448,11.9998 0,11.5518 0,10.9998 L0,2.9998 C0,2.4478 0.448,1.9998 1,1.9998 L2,1.9998 C2.553,1.9998 3,2.4478 3,2.9998 L3,10.9998 C3,11.5518 2.553,11.9998 2,11.9998"/><path d="M19,13.9998 C19,12.8948 18.105,11.9998 17,11.9998 C15.895,11.9998 15,12.8948 15,13.9998 C15,15.1048 15.895,15.9998 17,15.9998 C18.105,15.9998 19,15.1048 19,13.9998"/></g></g><text x="0" y="39" fill="#000000" font-size="5px" font-weight="bold" font-family="'Helvetica Neue', Helvetica, Arial-Unicode, Arial, Sans-serif">Created by Smashicons</text><text x="0" y="44" fill="#000000" font-size="5px" font-weight="bold" font-family="'Helvetica Neue', Helvetica, Arial-Unicode, Arial, Sans-serif">from the Noun Project</text></svg>