<svg width="85" height="67" viewBox="0 0 85 67" fill="none" xmlns="http://www.w3.org/2000/svg">
<path d="M84.7091 7.33127C84.6075 5.22967 83.6075 3.33127 82.1075 1.93287C80.6075 0.53447 78.6075 -0.168731 76.5059 0.034469C74.4043 0.136029 72.5058 1.13607 71.205 2.63607L31.205 47.6361L12.912 31.0311C11.412 29.6327 9.41205 28.9295 7.31045 29.0311C5.20885 29.1326 3.31045 30.0311 2.00965 31.5311C0.611247 33.0311 -0.0919526 35.0311 0.00964742 37.1327C0.111207 39.2343 1.00965 41.1327 2.50965 42.4335L26.6116 64.3315C28.01 65.6323 29.9125 66.3315 31.8109 66.3315H32.3108C34.3108 66.2299 36.2092 65.3315 37.7092 63.7299L82.9082 12.8319C84.1113 11.3319 84.8106 9.33127 84.7091 7.33127Z" fill="#FFFBFC"/>
</svg>
