<svg width="62" height="62" viewBox="0 0 62 62" fill="none" xmlns="http://www.w3.org/2000/svg">
<path d="M60.1538 19.365C61.1746 19.365 62 18.5373 62 17.5188C62 16.4979 61.1722 15.6726 60.1538 15.6726H46.3274V1.84624C46.3274 0.827793 45.4997 0 44.4812 0C43.4627 0 42.635 0.827793 42.635 1.84624V15.6726H19.365V1.84624C19.365 0.827793 18.5373 0 17.5188 0C16.4979 0 15.6726 0.827793 15.6726 1.84624V15.6726H1.84624C0.827793 15.6726 1.38212e-06 16.5004 1.38212e-06 17.5188C1.38212e-06 18.5373 0.827793 19.365 1.84624 19.365H15.6726V42.635H1.84624C0.827793 42.635 1.38212e-06 43.4628 1.38212e-06 44.4812C1.38212e-06 45.5021 0.827793 46.3274 1.84624 46.3274H15.6726V60.1538C15.6726 61.1722 16.5004 62 17.5188 62C18.5373 62 19.365 61.1722 19.365 60.1538V46.3274H42.635V60.1538C42.635 61.1722 43.4627 62 44.4812 62C45.5021 62 46.3274 61.1722 46.3274 60.1538V46.3274H60.1538C61.1746 46.3274 62 45.4997 62 44.4812C62 43.4628 61.1722 42.635 60.1538 42.635H46.3274V19.365H60.1538ZM19.365 19.365H42.635V42.635H19.365V19.365Z" fill="black"/>
</svg>
