<?xml version="1.0" encoding="UTF-8"?>
<svg version="1.1" xmlns="http://www.w3.org/2000/svg" width="100" height="100">
<path d="M0 0 C0 1.98 0 3.96 0 6 C0.5775 6.226875 1.155 6.45375 1.75 6.6875 C6.55401508 9.48984213 8.67453024 14.12758717 11 19 C11.33 19.33 11.66 19.66 12 20 C11.65632458 26.18615752 11.65632458 26.18615752 9.4375 28.9375 C5.8556202 30.49883222 2.89006898 30.19450345 -1 30 C-0.505 31.485 -0.505 31.485 0 33 C0.68337269 40.68306148 1.08119456 47.16632836 -3.80859375 53.44921875 C-5.21802217 55.10873762 -5.21802217 55.10873762 -6 58 C-5.38838717 60.69692134 -4.69957637 63.24488572 -3.875 65.875 C-3.67390625 66.58269531 -3.4728125 67.29039063 -3.265625 68.01953125 C-1.74306443 72.94492299 0.30527294 75.33015326 4 79 C4.3125 81.8125 4.3125 81.8125 4 84 C2.10705765 84.16302853 0.21001605 84.27886529 -1.6875 84.375 C-3.27111328 84.47941406 -3.27111328 84.47941406 -4.88671875 84.5859375 C-8.37359625 83.92968703 -9.63819802 82.93032414 -11.72045898 80.09472656 C-14.54695848 75.46748641 -16.8496844 70.57408365 -19.1875 65.6875 C-20.23805192 63.50128493 -21.29376966 61.31754215 -22.35546875 59.13671875 C-22.81590576 58.17467529 -23.27634277 57.21263184 -23.75073242 56.22143555 C-24.80275208 53.86512751 -24.80275208 53.86512751 -27 53 C-26.62746094 53.73605469 -26.25492188 54.47210938 -25.87109375 55.23046875 C-25.39800781 56.20628906 -24.92492188 57.18210938 -24.4375 58.1875 C-23.96183594 59.15042969 -23.48617187 60.11335938 -22.99609375 61.10546875 C-21.88725957 64.32761041 -21.86610898 65.8163829 -23 69 C-25.5625 71.3125 -25.5625 71.3125 -28 73 C-27.34 73.515625 -26.68 74.03125 -26 74.5625 C-23.34120547 77.80290583 -23.84754092 79.91695537 -24 84 C-29.05367833 84.07422923 -34.1070384 84.12863915 -39.16113281 84.16479492 C-40.87993905 84.17986933 -42.59870691 84.20033229 -44.31738281 84.22631836 C-46.78980997 84.26276165 -49.261728 84.27973958 -51.734375 84.29296875 C-52.50118591 84.30845261 -53.26799683 84.32393646 -54.05804443 84.33988953 C-58.32234178 84.34123073 -60.91928048 84.0771703 -64 81 C-64.495 81.495 -64.495 81.495 -65 82 C-67.109375 82.2734375 -67.109375 82.2734375 -69.75 82.375 C-70.61109375 82.42398438 -71.4721875 82.47296875 -72.359375 82.5234375 C-76.24178137 81.75384807 -77.64288974 80.12473554 -80 77 C-81.88803376 66.73894693 -79.48355262 57.68980262 -74.125 48.9375 C-71.47095986 46.51763987 -69.53258631 46.24085816 -66 46 C-66.51289171 50.4878025 -68.20284728 52.5446937 -71 56 C-74.51438617 62.15017581 -74.5742525 67.99853679 -74 75 C-72.87465895 76.35618499 -72.87465895 76.35618499 -69.9375 76.0625 C-68.968125 76.041875 -67.99875 76.02125 -67 76 C-64.60957136 72.28049304 -64.72271709 68.58576239 -64.625 64.3125 C-64.22060565 55.26812354 -62.0744177 48.37162622 -55.79296875 41.609375 C-51.1232172 37.41778973 -45.65409631 34.6551873 -39.890625 32.26953125 C-29.27265981 27.80171518 -24.32991164 23.82512372 -18 14 C-16.10058731 11.77851298 -14.20186727 9.93334687 -12 8 C-11.34 8 -10.68 8 -10 8 C-9.731875 7.236875 -9.46375 6.47375 -9.1875 5.6875 C-7.02863691 0.80165195 -5.38859138 -0.43691281 0 0 Z M1 17 C1 17.66 1 18.32 1 19 C1.66 19 2.32 19 3 19 C3 18.34 3 17.68 3 17 C2.34 17 1.68 17 1 17 Z " fill="#000000" transform="translate(80,6)"/>
<path d="M0 0 C1.31291016 -0.03867187 1.31291016 -0.03867187 2.65234375 -0.078125 C5.0625 0.25 5.0625 0.25 6.8671875 1.59765625 C8.50243099 3.85813989 8.28305871 5.52977591 8.0625 8.25 C5.4225 8.25 2.7825 8.25 0.0625 8.25 C-0.2675 9.24 -0.5975 10.23 -0.9375 11.25 C-6.30892857 15.25 -6.30892857 15.25 -8.9375 15.25 C-8.65685082 12.93613705 -8.36268311 10.62390992 -8.0625 8.3125 C-7.90007812 7.02472656 -7.73765625 5.73695312 -7.5703125 4.41015625 C-7.36148438 3.36730469 -7.15265625 2.32445312 -6.9375 1.25 C-4.48367866 0.02308933 -2.73765897 0.04824069 0 0 Z " fill="#000000" transform="translate(89.9375,41.75)"/>
</svg>
