<svg width="19" height="19" viewBox="0 0 19 19" fill="none" xmlns="http://www.w3.org/2000/svg">
<path fill-rule="evenodd" clip-rule="evenodd" d="M13.4837 0.790801C14.5455 -0.263603 16.267 -0.263603 17.3288 0.790819L17.4841 0.945223C18.5459 1.99964 18.5459 3.70919 17.4841 4.7636L11.1404 11.0636C10.6306 11.57 9.93904 11.8544 9.21799 11.8544H7.25C6.7495 11.8544 6.34375 11.4515 6.34375 10.9544V9.00001C6.34375 8.28391 6.6302 7.59716 7.14005 7.09082L13.4837 0.790801ZM16.0471 2.0636C15.6932 1.71213 15.1193 1.71213 14.7654 2.0636L14.4222 2.40443L15.8594 3.83163L16.2025 3.49082C16.5565 3.13933 16.5565 2.56949 16.2025 2.21802L16.0471 2.0636ZM14.5778 5.10441L13.1406 3.67721L8.42169 8.3636C8.25173 8.53238 8.15625 8.76131 8.15625 9.00001V10.0544H9.21799C9.45833 10.0544 9.68884 9.95959 9.8588 9.79082L14.5778 5.10441Z" fill="black"/>
<path d="M0 4.65435C0 3.16317 1.21722 1.95435 2.71875 1.95435H7.25C7.7505 1.95435 8.15625 2.35729 8.15625 2.85435C8.15625 3.3514 7.7505 3.75435 7.25 3.75435H2.71875C2.21825 3.75435 1.8125 4.15729 1.8125 4.65435V15.4543C1.8125 15.9513 2.21825 16.3543 2.71875 16.3543H13.5938C14.0942 16.3543 14.5 15.9513 14.5 15.4543V10.9543C14.5 10.4573 14.9058 10.0543 15.4062 10.0543C15.9067 10.0543 16.3125 10.4573 16.3125 10.9543V15.4543C16.3125 16.9455 15.0952 18.1543 13.5938 18.1543H2.71875C1.21722 18.1543 0 16.9455 0 15.4543V4.65435Z" fill="black"/>
</svg>
