<svg width="591" height="249" viewBox="0 0 591 249" fill="none" xmlns="http://www.w3.org/2000/svg">
<path d="M0.948828 246V2.99998H61.2488C75.8488 2.99998 87.4488 5.69998 96.0488 11.1C104.849 16.3 111.249 23.9 115.249 33.9C119.249 43.9 121.249 56 121.249 70.2C121.249 83 118.949 94.1 114.349 103.5C109.949 112.9 103.349 120.2 94.5488 125.4C85.7488 130.4 74.7488 132.9 61.5488 132.9H34.8488V246H0.948828ZM34.8488 108.6H50.4488C60.2488 108.6 67.9488 107.5 73.5488 105.3C79.1488 103.1 83.1488 99.3 85.5488 93.9C87.9488 88.3 89.1488 80.5 89.1488 70.5C89.1488 58.9 88.2488 50 86.4488 43.8C84.8488 37.6 81.3488 33.3 75.9488 30.9C70.5488 28.5 62.1488 27.3 50.7488 27.3H34.8488V108.6ZM207.189 248.7C190.789 248.7 177.689 245.5 167.889 239.1C158.089 232.7 151.089 223.6 146.889 211.8C142.689 199.8 140.589 185.8 140.589 169.8V77.7C140.589 61.7 142.689 48 146.889 36.6C151.289 25 158.289 16.2 167.889 10.2C177.689 3.99999 190.789 0.899991 207.189 0.899991C223.589 0.899991 236.589 3.99999 246.189 10.2C255.789 16.4 262.689 25.2 266.889 36.6C271.289 48 273.489 61.7 273.489 77.7V170.1C273.489 185.9 271.289 199.7 266.889 211.5C262.689 223.3 255.789 232.5 246.189 239.1C236.589 245.5 223.589 248.7 207.189 248.7ZM207.189 222C216.189 222 222.989 220.2 227.589 216.6C232.189 212.8 235.289 207.6 236.889 201C238.489 194.2 239.289 186.3 239.289 177.3V70.8C239.289 61.8 238.489 54.1 236.889 47.7C235.289 41.1 232.189 36.1 227.589 32.7C222.989 29.1 216.189 27.3 207.189 27.3C198.189 27.3 191.289 29.1 186.489 32.7C181.889 36.1 178.789 41.1 177.189 47.7C175.589 54.1 174.789 61.8 174.789 70.8V177.3C174.789 186.3 175.589 194.2 177.189 201C178.789 207.6 181.889 212.8 186.489 216.6C191.289 220.2 198.189 222 207.189 222ZM306.808 246V2.99998H329.908L398.908 164.4V2.99998H427.108V246H405.508L335.608 80.1V246H306.808ZM523.204 249C508.004 249 495.804 245.8 486.604 239.4C477.604 232.8 471.004 223.3 466.804 210.9C462.804 198.5 460.804 183.6 460.804 166.2V84.9C460.804 67.1 462.604 52 466.204 39.6C470.004 27 476.604 17.4 486.004 10.8C495.604 4.19999 508.904 0.899991 525.904 0.899991C541.104 0.899991 553.304 3.49999 562.504 8.7C571.904 13.7 578.704 21.5 582.904 32.1C587.104 42.5 589.204 55.7 589.204 71.7V80.7H557.404V73.2C557.404 62.6 556.704 54 555.304 47.4C553.904 40.6 551.004 35.6 546.604 32.4C542.404 29 535.704 27.3 526.504 27.3C516.504 27.3 509.204 29.6 504.604 34.2C500.204 38.8 497.404 45.1 496.204 53.1C495.204 60.9 494.704 69.8 494.704 79.8V169.8C494.704 181.4 495.504 191.1 497.104 198.9C498.904 206.7 502.204 212.5 507.004 216.3C511.804 220.1 518.604 222 527.404 222C536.204 222 543.004 219.9 547.804 215.7C552.604 211.5 555.904 205.3 557.704 197.1C559.504 188.9 560.404 178.7 560.404 166.5V149.7H529.504V125.7H591.004V246H569.704L566.404 218.1C563.204 227.1 558.204 234.5 551.404 240.3C544.604 246.1 535.204 249 523.204 249Z" fill="#131112"/>
</svg>
