<svg width="907" height="249" viewBox="0 0 907 249" fill="none" xmlns="http://www.w3.org/2000/svg">
<path d="M64.7684 248.7C50.7684 248.7 39.0684 245.7 29.6684 239.7C20.4684 233.7 13.4684 225.4 8.66836 214.8C3.86836 204.2 1.06836 191.9 0.26836 177.9L30.2684 169.8C30.8684 178.4 32.1684 186.7 34.1684 194.7C36.3684 202.7 39.8684 209.3 44.6684 214.5C49.4684 219.5 56.1684 222 64.7684 222C73.5684 222 80.1684 219.6 84.5684 214.8C89.1684 209.8 91.4684 202.7 91.4684 193.5C91.4684 182.5 88.9684 173.7 83.9684 167.1C78.9684 160.3 72.6684 153.5 65.0684 146.7L24.2684 110.7C16.2684 103.7 10.3684 96.1 6.56836 87.9C2.76836 79.5 0.86836 69.2 0.86836 57C0.86836 39.2 5.96836 25.4 16.1684 15.6C26.3684 5.79999 40.2684 0.899991 57.8684 0.899991C67.4684 0.899991 75.8684 2.19999 83.0684 4.79999C90.4684 7.19999 96.5684 11 101.368 16.2C106.368 21.4 110.268 28 113.068 36C116.068 43.8 118.068 53 119.068 63.6L90.2684 71.4C89.6684 63.4 88.4684 56.1 86.6684 49.5C84.8684 42.7 81.6684 37.3 77.0684 33.3C72.6684 29.1 66.2684 27 57.8684 27C49.4684 27 42.8684 29.3 38.0684 33.9C33.4684 38.3 31.1684 44.9 31.1684 53.7C31.1684 61.1 32.3684 67.2 34.7684 72C37.3684 76.8 41.4684 81.7 47.0684 86.7L88.1684 122.7C97.3684 130.7 105.468 140.3 112.468 151.5C119.468 162.5 122.968 175.6 122.968 190.8C122.968 202.8 120.468 213.2 115.468 222C110.468 230.6 103.568 237.2 94.7684 241.8C86.1684 246.4 76.1684 248.7 64.7684 248.7ZM211.965 248.7C194.365 248.7 180.865 245.2 171.465 238.2C162.065 231.2 155.665 221.4 152.265 208.8C148.865 196 147.165 181.1 147.165 164.1V2.99998H179.565V165.6C179.565 176 180.265 185.5 181.665 194.1C183.065 202.7 186.065 209.5 190.665 214.5C195.465 219.5 202.565 222 211.965 222C221.565 222 228.665 219.5 233.265 214.5C237.865 209.5 240.865 202.7 242.265 194.1C243.665 185.5 244.365 176 244.365 165.6V2.99998H276.465V164.1C276.465 181.1 274.765 196 271.365 208.8C267.965 221.4 261.565 231.2 252.165 238.2C242.965 245.2 229.565 248.7 211.965 248.7ZM312.156 246V2.99998H364.956C382.956 2.99998 397.156 5.79998 407.556 11.4C418.156 16.8 425.656 25 430.056 36C434.656 47 436.956 60.7 436.956 77.1V166.5C436.956 183.7 434.656 198.2 430.056 210C425.656 221.8 418.356 230.8 408.156 237C398.156 243 384.656 246 367.656 246H312.156ZM346.056 221.7H365.256C377.656 221.7 386.456 219.3 391.656 214.5C396.856 209.7 399.956 202.7 400.956 193.5C402.156 184.3 402.756 173.2 402.756 160.2V81.3C402.756 68.7 401.956 58.5 400.356 50.7C398.756 42.9 395.256 37.2 389.856 33.6C384.456 30 375.956 28.2 364.356 28.2H346.056V221.7ZM532.459 248.7C516.059 248.7 502.959 245.5 493.159 239.1C483.359 232.7 476.359 223.6 472.159 211.8C467.959 199.8 465.859 185.8 465.859 169.8V77.7C465.859 61.7 467.959 48 472.159 36.6C476.559 25 483.559 16.2 493.159 10.2C502.959 3.99999 516.059 0.899991 532.459 0.899991C548.859 0.899991 561.859 3.99999 571.459 10.2C581.059 16.4 587.959 25.2 592.159 36.6C596.559 48 598.759 61.7 598.759 77.7V170.1C598.759 185.9 596.559 199.7 592.159 211.5C587.959 223.3 581.059 232.5 571.459 239.1C561.859 245.5 548.859 248.7 532.459 248.7ZM532.459 222C541.459 222 548.259 220.2 552.859 216.6C557.459 212.8 560.559 207.6 562.159 201C563.759 194.2 564.559 186.3 564.559 177.3V70.8C564.559 61.8 563.759 54.1 562.159 47.7C560.559 41.1 557.459 36.1 552.859 32.7C548.259 29.1 541.459 27.3 532.459 27.3C523.459 27.3 516.559 29.1 511.759 32.7C507.159 36.1 504.059 41.1 502.459 47.7C500.859 54.1 500.059 61.8 500.059 70.8V177.3C500.059 186.3 500.859 194.2 502.459 201C504.059 207.6 507.159 212.8 511.759 216.6C516.559 220.2 523.459 222 532.459 222ZM632.078 246V2.99998H665.978V117.6L721.778 2.99998H753.278L705.278 110.1L761.078 246H728.078L681.578 132L665.978 160.2V246H632.078ZM842.141 248.7C824.541 248.7 811.041 245.2 801.641 238.2C792.241 231.2 785.841 221.4 782.441 208.8C779.041 196 777.341 181.1 777.341 164.1V2.99998H809.741V165.6C809.741 176 810.441 185.5 811.841 194.1C813.241 202.7 816.241 209.5 820.841 214.5C825.641 219.5 832.741 222 842.141 222C851.741 222 858.841 219.5 863.441 214.5C868.041 209.5 871.041 202.7 872.441 194.1C873.841 185.5 874.541 176 874.541 165.6V2.99998H906.641V164.1C906.641 181.1 904.941 196 901.541 208.8C898.141 221.4 891.741 231.2 882.341 238.2C873.141 245.2 859.741 248.7 842.141 248.7Z" fill="#131112"/>
</svg>
