<svg width="67" height="69" viewBox="0 0 67 69" fill="none" xmlns="http://www.w3.org/2000/svg">
<path d="M65.0467 57.3127L43.2253 34.5225L65.1327 11.7322C67.746 8.95656 67.5748 4.58452 64.8792 1.89446C62.098 -0.7137 57.6316 -0.628264 55.0217 2.14738L33.5356 24.5172L12.1321 2.14738C9.51875 -0.628281 5.0557 -0.710353 2.27464 1.89446C-0.506583 4.50261 -0.58882 8.95673 2.02121 11.7322L24.5 34.5225L1.93864 57.3127C0.674748 58.6595 0 60.4234 0 62.2727C0 64.1221 0.842592 65.8893 2.10648 67.0652C3.37037 68.3266 5.05555 69 6.99419 69C8.84722 69 10.7002 68.2445 12.0497 66.8977L33.4499 44.5279L54.85 66.8977C56.1995 68.2445 57.967 69 59.9056 69C61.6764 69 63.3616 68.3266 64.7077 67.0652C66.0572 65.8039 66.8142 64.0366 66.8998 62.1873C66.9854 60.4233 66.3106 58.6595 65.0467 57.3127Z" fill="white"/>
</svg>
