<svg width="438" height="438" viewBox="0 0 438 438" fill="none" xmlns="http://www.w3.org/2000/svg">
<path fill-rule="evenodd" clip-rule="evenodd" d="M200.751 18.25V419.75C200.751 429.829 208.922 438 219.001 438C229.08 438 237.251 429.829 237.251 419.75V18.25C237.251 8.1708 229.08 0 219.001 0C208.922 0 200.751 8.1708 200.751 18.25Z" fill="#131112"/>
<path fill-rule="evenodd" clip-rule="evenodd" d="M419.75 419.751H401.5C391.426 419.751 383.25 411.575 383.25 401.501V255.501C383.25 245.427 391.426 237.251 401.5 237.251H419.75C429.842 237.251 438 245.427 438 255.501V401.501C438 411.575 429.842 419.751 419.75 419.751Z" fill="#131112"/>
<path fill-rule="evenodd" clip-rule="evenodd" d="M36.5 218.999H18.25C8.176 218.999 0 210.823 0 200.749V54.7494C0 44.6754 8.176 36.4994 18.25 36.4994H36.5C46.5923 36.4994 54.75 44.6754 54.75 54.7494V200.749C54.75 210.823 46.5923 218.999 36.5 218.999Z" fill="#131112"/>
<path fill-rule="evenodd" clip-rule="evenodd" d="M346.75 255.5C346.75 235.334 330.416 219 310.25 219C290.084 219 273.75 235.334 273.75 255.5C273.75 275.666 290.084 292 310.25 292C330.416 292 346.75 275.666 346.75 255.5Z" fill="#131112"/>
</svg>
